# xmcd CD database file
#
# Track frame offsets:
#	150
#	37280
#	69541
#	89309
#	123792
#	151553
#	184446
#
# Disc length: 2746 seconds
#
# Revision: 0
# Processed by: cddbd v1.5.1PL2 Copyright (c) Steve Scherf et al.
# Submitted via: CDex 1.51
#
DISCID=570ab807
DTITLE=Sensorium - A Fine Line
DYEAR=2005
DGENRE=Jazz
TTITLE0=The Two Suns of Iona
TTITLE1=Jesus in Albion
TTITLE2=Ye Ken Ken
TTITLE3=The Wailers of Auchtermuchtie
TTITLE4=From Nowhere
TTITLE5=Big Bright Sky
TTITLE6=Red-haired Boy
EXTD=YEAR: 2005
EXTT0=
EXTT1=
EXTT2=
EXTT3=
EXTT4=
EXTT5=
EXTT6=
PLAYORDER=
